Coordinates																																												
version=1																																												
nRows=13																																												
nColumns=45																																												
inDegrees=yes																																												
																																												
"Units are S.I. units (second, meters, Newtons, ...)"																																												
Angles are in degrees.																																												
																																												
endheader																																												
time	pelvis_tilt	pelvis_list	pelvis_rotation	pelvis_tx	pelvis_ty	pelvis_tz	hip_flexion_r	hip_adduction_r	hip_rotation_r	knee_angle_r	knee_adduction_r	knee_angle_r_beta	ankle_angle_r	subtalar_angle_r	mtp_angle_r	hip_flexion_l	hip_adduction_l	hip_rotation_l	knee_angle_l	knee_adduction_l	knee_angle_l_beta	ankle_angle_l	subtalar_angle_l	mtp_angle_l	lumbar_extension	lumbar_bending	lumbar_rotation	thoracic_extension	thoracic_bending	thoracic_rotation	arm_flex_r	arm_add_r	arm_rot_r	elbow_flex_r	pro_sup_r	wrist_flex_r	wrist_dev_r	arm_flex_l	arm_add_l	arm_rot_l	elbow_flex_l	pro_sup_l	wrist_flex_l	wrist_dev_l
18.8675	-2.11097406	-6.43266111	1.58535287	0.72113456	0.91423111	0.4972036	28.46699493	5.96603067	-6.19882805	30.2954938	5.063	0.52875612	6.78108257	-6.81778616	2.55601151	-2.46858801	-12.66918075	-5.10178756	55.88760945	5.063	0.9754228	-12.9015256	-15.73864646	-10.7995483	-4.0591974	8.62733342	-4.6011847	0	0	0	-5.37485942	-12.31975556	-2.55819038	23.12006495	89.99911678	0	0	5.36706131	-17.54677914	4.43904115	48.90477027	89.99945425	0	0
18.87828571	-1.89563634	-6.92209104	1.78796997	0.72171033	0.91598871	0.49893706	27.26368023	6.6991523	-6.06543621	30.42536753	5.063	0.53102284	7.83012685	-7.11535281	2.99145525	-0.28102023	-13.16485591	-3.67360813	59.32743493	5.063	1.03545908	-13.15655449	-16.14808638	-4.66940597	-4.13793946	9.06562219	-4.51214333	0	0	0	-4.48730506	-12.2770726	-2.19695469	23.23847389	89.99911678	0	0	5.34739748	-17.08267053	4.97985627	47.06199949	89.99945425	0	0
18.88907143	-1.77091963	-7.22305854	2.02775626	0.72185196	0.91801475	0.50020982	26.05620039	7.19915674	-5.9397601	30.36075134	5.063	0.52989507	8.87647538	-7.26559518	3.30337112	2.05104778	-13.27860864	-2.14003855	62.378636	5.063	1.08871258	-12.83832607	-16.45115161	-0.26828862	-4.13071134	9.31930473	-4.4712677	0	0	0	-3.56254297	-12.24864594	-1.80866375	23.41376185	89.99911678	0	0	5.36598479	-16.6059044	5.65558609	45.15814409	89.99945425	0	0
18.89985714	-1.63307798	-7.28498039	2.20143116	0.72154069	0.92035009	0.50134056	24.77030634	7.49340316	-5.6502796	30.16286384	5.063	0.52644129	9.86096228	-7.41879111	3.50060761	4.32135571	-13.00821667	-0.72551766	64.98775236	5.063	1.13425025	-12.07776868	-16.6173725	2.11751208	-4.215078	9.30086397	-4.29340932	0	0	0	-2.61046071	-12.2146044	-1.5098566	23.7754014	89.99911678	0	0	5.33182745	-16.1970439	6.21359909	43.66387551	89.99945425	0	0
18.91064286	-1.52781022	-7.14048625	2.14129799	0.72109061	0.92307334	0.50201295	23.41784861	7.57977115	-5.23430929	29.83340595	5.063	0.52069116	10.75382449	-7.23936442	3.49642908	6.44469732	-12.38282469	0.32813283	67.06760978	5.063	1.17055061	-10.94266991	-16.81202958	3.06214481	-4.31113722	9.1331541	-4.01220655	0	0	0	-1.59942751	-12.29549888	-1.33759431	24.34136335	89.99911678	0	0	5.00653232	-15.73652663	6.65727529	42.64272219	89.99945425	0	0
18.92142857	-1.63521324	-7.15175266	2.77342404	0.72057659	0.92594205	0.5018214	22.09084939	7.50846873	-5.64606355	29.06943089	5.063	0.50735728	11.54488672	-6.85876652	3.87021181	9.07351799	-11.78020655	2.03481952	68.92259182	5.063	1.20292616	-8.98208015	-16.55528134	4.30862245	-3.96796462	9.10786064	-4.30828743	0	0	0	-0.64686341	-12.23101876	-0.8921618	24.49886704	89.99911678	0	0	5.17546438	-15.17560898	7.72183301	39.94416552	89.99945425	0	0
18.93221429	-1.65491199	-6.69889365	2.47256619	0.7197835	0.92898988	0.50224321	20.76135079	7.2595849	-5.15254447	28.54482032	5.063	0.4982011	12.17235246	-6.40356918	3.66403692	11.05589917	-10.78101739	2.43962238	70.04468062	5.063	1.2225103	-7.12343856	-16.60116214	3.80725139	-4.01249019	8.58194167	-3.72512491	0	0	0	0.26428291	-12.34825923	-0.81411173	25.31274524	89.99911678	0	0	4.62715006	-14.74874514	8.03140117	39.63318714	89.99945425	0	0
18.943	-1.67448744	-6.14895142	2.23694501	0.71895518	0.93196579	0.50286793	19.44772124	6.8726536	-4.74007227	28.04249542	5.063	0.48943388	12.77552266	-5.84733353	3.37966541	12.99240943	-9.79908075	2.63953333	70.78056327	5.063	1.23535388	-4.96193992	-16.33896647	3.16760664	-4.01833257	7.91926067	-3.0275012	0	0	0	0.9142154	-12.32665035	-0.78309525	26.12623965	89.99911678	0	0	3.98847724	-14.49748328	8.11874236	39.67492941	89.99945425	0	0
18.95378571	-1.77583695	-6.31542329	2.84851147	0.71800573	0.93519019	0.50204604	17.82243117	6.93197559	-5.32944593	26.61336113	5.063	0.46449078	13.10295291	-5.20248672	4.04173326	15.35298803	-9.38046259	3.70380992	71.33642656	5.063	1.24505552	-2.76341664	-16.13884442	2.73387735	-3.70661672	8.19057657	-3.34009184	0	0	0	2.01939989	-12.55134257	-0.2534715	26.54219198	89.99911678	0	0	4.47566028	-13.75739705	9.97914331	35.93503096	89.99945425	0	0
18.96457143	-1.92695549	-5.9181588	2.4747968	0.71733947	0.93825556	0.50255471	16.45862863	6.67520076	-5.00270275	25.7071112	5.063	0.44867373	13.35813544	-4.49699763	3.93162301	17.17304225	-8.71728705	3.37221022	71.16242294	5.063	1.24201858	-0.69661877	-16.00086906	2.18578808	-3.52817951	7.70560237	-2.72229669	0	0	0	2.87575105	-12.6562831	-0.15384296	27.54428509	89.99911678	0	0	3.73865702	-13.46059867	10.56696384	35.49552991	89.99945425	0	0
18.97535714	-2.10385152	-5.58683566	2.15124868	0.71616258	0.94109733	0.50277555	15.13443128	6.42483928	-4.77318571	24.72601224	5.063	0.43155032	13.51303371	-3.6913801	3.84796654	19.03379252	-8.16039803	2.97291434	70.69732293	5.063	1.23390106	1.17970638	-15.9423915	1.76701319	-3.40743713	7.37550133	-2.18175027	0	0	0	3.68982664	-12.79038576	-0.12988221	28.47866552	89.99911678	0	0	3.0200041	-13.12206634	10.89547961	35.2816789	89.99945425	0	0
18.98614286	-2.30958949	-5.34383936	1.84715492	0.71491494	0.9437202	0.50315687	13.86772193	6.2510859	-4.63212383	23.7514913	5.063	0.41454173	13.61215053	-2.89393929	3.76277416	20.84869794	-7.81723048	2.43431028	69.86219741	5.063	1.21932537	2.84080485	-15.85391078	1.45413373	-3.27848108	7.07927913	-1.58600912	0	0	0	4.63730173	-12.9368788	-0.12932857	29.46471702	89.99911678	0	0	2.31498793	-12.80382412	11.13773651	35.13399132	89.99945425	0	0
18.99692857	-1.76039974	-5.21736865	1.38811854	0.71398064	0.9471705	0.50371463	11.63028679	6.29081623	-4.17608841	22.47031984	5.063	0.39218107	13.58123026	-2.21850634	3.92751598	21.59414024	-7.78786504	1.58177247	68.54508653	5.063	1.19633745	4.41488554	-15.63984047	1.3559154	-3.99771526	6.96761738	-0.51586634	0	0	0	5.14908483	-13.33376246	0.03111684	31.32818685	89.99911678	0	0	2.2818232	-12.35293136	12.30339296	33.47918054	89.99945425	0	0
